<svg xmlns="http://www.w3.org/2000/svg" xmlns:xlink="http://www.w3.org/1999/xlink" version="1.1" id="Layer_1" x="0px" y="0px" width="100%" viewBox="0 0 512 512" enable-background="new 0 0 512 512" xml:space="preserve">
<path fill="#2EA1DA" opacity="1.000000" stroke="none" d=" M235.000000,0.999999   C249.354233,1.000000 263.708466,1.000000 278.740784,1.370516   C287.367981,2.809399 295.333679,3.768102 303.263123,4.966592   C327.535919,8.635301 350.436646,16.642853 372.204102,27.769812   C382.362122,32.962337 391.979279,39.212959 401.967102,45.383186   C402.305786,54.418659 402.624298,63.053940 402.706055,71.691460   C402.812836,82.975266 402.733215,83.096519 391.287903,83.195053   C387.873352,83.224442 386.602539,84.183823 386.664642,87.737709   C386.853851,98.563133 386.749176,109.394051 386.715179,120.222687   C386.709656,121.990273 386.482361,123.757164 386.331085,125.899414   C377.999115,125.899414 370.186707,125.891212 362.374298,125.901619   C353.802460,125.913033 352.106659,127.566414 352.103577,136.049133   C352.091125,170.201324 352.095215,204.353531 352.101166,238.505722   C352.102386,245.492371 354.295380,248.960449 358.638580,248.923737   C363.013489,248.886765 364.995911,245.630371 364.997345,238.393555   C365.003540,207.240097 365.000000,176.086624 365.000031,144.933167   C365.000031,143.005615 365.000031,141.078064 365.000031,138.733063   C370.436218,138.733063 375.080475,138.731567 379.724731,138.733429   C386.727142,138.736206 386.731445,138.737198 386.731506,145.749161   C386.732544,231.712738 386.694916,317.676392 386.872314,403.639618   C386.879211,406.984344 388.228851,410.829895 390.172028,413.580841   C399.106842,426.229645 408.500519,438.553650 417.652496,451.050690   C418.687683,452.464203 419.237122,454.233459 419.661682,455.912292   C414.873901,459.324005 410.498016,462.747314 405.987579,465.983124   C387.683777,479.114288 367.959106,489.701050 346.855164,497.477448   C328.911102,504.089447 310.462341,509.021240 291.339233,511.040222   C287.203278,511.476868 283.111908,512.335693 279.000000,513.000000   C264.645782,513.000000 250.291550,513.000000 235.259216,512.629517   C188.874481,508.645844 147.345917,493.505554 110.374352,466.960388   C113.169258,466.813232 115.500519,466.746399 117.831772,466.746216   C187.805847,466.740662 257.779907,466.742828 327.753998,466.740509   C337.865448,466.740173 339.270752,465.341675 339.271057,455.214508   C339.274750,331.926849 339.274445,208.639191 339.271790,85.351524   C339.271576,75.762840 338.239807,74.737122 328.661743,74.727783   C321.220642,74.720520 313.779541,74.726326 305.907532,74.726326   C305.907532,66.317093 305.924072,58.675724 305.903015,51.034454   C305.880676,42.938015 303.955322,40.999775 295.910889,40.998348   C254.259644,40.990944 212.608398,41.009682 170.957169,40.987637   C153.632812,40.978470 136.308487,40.890690 119.161774,40.547081   C135.258728,32.315182 150.796677,23.450079 167.200821,16.685417   C184.855698,9.404988 203.536636,5.001331 222.658218,2.960502   C226.794769,2.519013 230.887238,1.664351 235.000000,0.999999  z"/>
<path fill="#FFFFFF" opacity="1.000000" stroke="none" d=" M279.468658,513.000000   C283.111908,512.335693 287.203278,511.476868 291.339233,511.040222   C310.462341,509.021240 328.911102,504.089447 346.855164,497.477448   C367.959106,489.701050 387.683777,479.114288 405.987579,465.983124   C410.498016,462.747314 414.873901,459.324005 420.009216,456.085876   C421.470367,459.760773 422.546356,463.304962 422.913635,466.921112   C423.317963,470.902130 425.131683,472.873077 429.079834,473.006775   C434.813141,473.200897 436.533569,471.312378 437.073029,465.096222   C437.344330,461.970032 437.513611,458.325439 439.179138,455.918854   C446.022186,446.030914 453.208557,436.359131 460.677460,426.931732   C468.153259,417.495728 475.661438,408.266693 473.453583,394.836792   C481.686157,378.741119 490.551849,363.203522 497.316162,346.799438   C504.596130,329.144775 509.001343,310.464447 511.040985,291.342865   C511.482239,287.205994 512.336182,283.113129 513.000000,279.000000   C513.000000,356.927032 513.000000,434.854095 513.000000,513.000000   C435.312561,513.000000 357.624939,513.000000 279.468658,513.000000  z"/>
<path fill="#FFFFFF" opacity="1.000000" stroke="none" d=" M109.910698,467.071808   C147.345917,493.505554 188.874481,508.645844 234.790558,512.629517   C157.072968,513.000000 79.145927,513.000000 1.000000,513.000000   C1.000000,435.312561 1.000000,357.624939 1.370028,279.678711   C3.477410,290.718292 4.812052,302.096161 7.030292,313.299103   C12.861305,342.747894 24.466236,369.885406 40.906631,395.478821   C40.983093,406.097290 41.019447,416.250610 40.980244,426.403656   C40.962929,430.887878 43.076012,433.046692 47.569332,433.017303   C54.393356,432.972656 61.218060,433.034424 68.042152,432.995148   C72.146263,432.971527 74.081352,434.868347 74.020454,439.036835   C73.923210,445.693298 73.971878,452.352295 74.001160,459.010040   C74.026093,464.680054 76.305168,466.971954 81.950188,466.999359   C91.270256,467.044647 100.590515,467.049774 109.910698,467.071808  z"/>
<path fill="#FFFFFF" opacity="1.000000" stroke="none" d=" M401.841614,44.983986   C391.979279,39.212959 382.362122,32.962337 372.204102,27.769812   C350.436646,16.642853 327.535919,8.635301 303.263123,4.966592   C295.333679,3.768102 287.367981,2.809399 279.209442,1.370516   C356.927032,1.000000 434.854095,1.000000 513.000000,1.000000   C513.000000,78.687424 513.000000,156.375061 512.630005,234.321259   C510.522583,223.281525 509.188416,211.903366 506.969574,200.700394   C501.137085,171.251968 489.536377,144.112579 473.090515,118.521469   C473.019470,106.463104 473.019470,94.869904 473.019470,82.841080   C467.377472,82.841080 462.302826,82.841080 456.816986,82.841080   C456.816986,68.672699 456.816986,54.943268 456.816986,41.253723   C438.302643,41.253723 420.226166,41.253723 402.149719,41.253723   C402.032990,42.666779 401.937317,43.825378 401.841614,44.983986  z"/>
<path fill="#FFFFFF" opacity="1.000000" stroke="none" d=" M234.531342,0.999999   C230.887238,1.664351 226.794769,2.519013 222.658218,2.960502   C203.536636,5.001331 184.855698,9.404988 167.200821,16.685417   C150.796677,23.450079 135.258728,32.315182 118.696167,40.616661   C95.072487,40.983299 72.092041,40.987694 49.111603,40.994961   C42.460411,40.997063 41.007496,42.449478 40.993263,49.056572   C40.943047,72.366493 40.888645,95.676414 40.544338,119.163681   C32.312691,135.259995 23.446903,150.797333 16.683495,167.201462   C9.404520,184.856064 4.996579,203.535492 2.958899,222.657303   C2.518065,226.794144 1.663824,230.886917 1.000001,235.000000   C1.000000,157.072952 1.000000,79.145912 1.000000,1.000000   C78.687424,1.000000 156.375061,1.000000 234.531342,0.999999  z"/>
<path fill="#2EA2DB" opacity="1.000000" stroke="none" d=" M473.161530,118.986649   C489.536377,144.112579 501.137085,171.251968 506.969574,200.700394   C509.188416,211.903366 510.522583,223.281525 512.630005,234.789917   C513.000000,249.354233 513.000000,263.708466 513.000000,278.531342   C512.336182,283.113129 511.482239,287.205994 511.040985,291.342865   C509.001343,310.464447 504.596130,329.144775 497.316162,346.799438   C490.551849,363.203522 481.686157,378.741119 473.394897,394.372711   C473.032257,303.215210 473.019989,212.345200 473.014893,121.475189   C473.014832,120.645676 473.110535,119.816162 473.161530,118.986649  z"/>
<path fill="#2EA2DB" opacity="1.000000" stroke="none" d=" M1.000001,235.468658   C1.663824,230.886917 2.518065,226.794144 2.958899,222.657303   C4.996579,203.535492 9.404520,184.856064 16.683495,167.201462   C23.446903,150.797333 32.312691,135.259995 40.601959,119.627838   C40.962811,210.784698 40.974945,301.654755 40.980042,392.524811   C40.980087,393.354401 40.885960,394.184021 40.835800,395.013611   C24.466236,369.885406 12.861305,342.747894 7.030292,313.299103   C4.812052,302.096161 3.477410,290.718292 1.370028,279.210083   C1.000000,264.645782 1.000000,250.291550 1.000001,235.468658  z"/>
<path fill="#1B3853" opacity="1.000000" stroke="none" d=" M40.906631,395.478821   C40.885960,394.184021 40.980087,393.354401 40.980042,392.524811   C40.974945,301.654755 40.962811,210.784698 40.893448,119.450485   C40.888645,95.676414 40.943047,72.366493 40.993263,49.056572   C41.007496,42.449478 42.460411,40.997063 49.111603,40.994961   C72.092041,40.987694 95.072487,40.983299 118.518539,40.908234   C136.308487,40.890690 153.632812,40.978470 170.957169,40.987637   C212.608398,41.009682 254.259644,40.990944 295.910889,40.998348   C303.955322,40.999775 305.880676,42.938015 305.903015,51.034454   C305.924072,58.675724 305.907532,66.317093 305.907532,74.726326   C313.779541,74.726326 321.220642,74.720520 328.661743,74.727783   C338.239807,74.737122 339.271576,75.762840 339.271790,85.351524   C339.274445,208.639191 339.274750,331.926849 339.271057,455.214508   C339.270752,465.341675 337.865448,466.740173 327.753998,466.740509   C257.779907,466.742828 187.805847,466.740662 117.831772,466.746216   C115.500519,466.746399 113.169258,466.813232 110.374352,466.960388   C100.590515,467.049774 91.270256,467.044647 81.950188,466.999359   C76.305168,466.971954 74.026093,464.680054 74.001160,459.010040   C73.971878,452.352295 73.923210,445.693298 74.020454,439.036835   C74.081352,434.868347 72.146263,432.971527 68.042152,432.995148   C61.218060,433.034424 54.393356,432.972656 47.569332,433.017303   C43.076012,433.046692 40.962929,430.887878 40.980244,426.403656   C41.019447,416.250610 40.983093,406.097290 40.906631,395.478821  M326.653839,403.500183   C326.653839,298.448303 326.653839,193.396408 326.653839,88.452698   C246.661087,88.452698 167.580231,88.452698 88.361282,88.452698   C88.361282,210.028488 88.361282,331.270264 88.361282,452.697021   C167.813187,452.697021 247.022354,452.697021 326.653809,452.697021   C326.653809,436.432922 326.653809,420.466553 326.653839,403.500183  M104.499840,74.662315   C167.256348,74.662315 230.012848,74.662315 292.619446,74.662315   C292.619446,67.587715 292.619446,61.191959 292.619446,54.983067   C213.157806,54.983067 134.080978,54.983067 54.962746,54.983067   C54.962746,176.525162 54.962746,297.739838 54.962746,419.124786   C61.541008,419.124786 67.811775,419.124786 74.662323,419.124786   C74.662323,416.796875 74.662323,414.671478 74.662323,412.546082   C74.662323,304.066437 74.662308,195.586761 74.662483,87.107109   C74.662491,85.607391 74.622169,84.106209 74.673790,82.608223   C74.874695,76.777939 76.746109,74.787483 82.504219,74.693695   C89.501068,74.579720 96.501152,74.663857 104.499840,74.662315  z"/>
<path fill="#1A3752" opacity="1.000000" stroke="none" d=" M473.090515,118.521469   C473.110535,119.816162 473.014832,120.645676 473.014893,121.475189   C473.019989,212.345200 473.032257,303.215210 473.102814,394.549316   C475.661438,408.266693 468.153259,417.495728 460.677460,426.931732   C453.208557,436.359131 446.022186,446.030914 439.179138,455.918854   C437.513611,458.325439 437.344330,461.970032 437.073029,465.096222   C436.533569,471.312378 434.813141,473.200897 429.079834,473.006775   C425.131683,472.873077 423.317963,470.902130 422.913635,466.921112   C422.546356,463.304962 421.470367,459.760773 420.359314,456.011292   C419.237122,454.233459 418.687683,452.464203 417.652496,451.050690   C408.500519,438.553650 399.106842,426.229645 390.172028,413.580841   C388.228851,410.829895 386.879211,406.984344 386.872314,403.639618   C386.694916,317.676392 386.732544,231.712738 386.731506,145.749161   C386.731445,138.737198 386.727142,138.736206 379.724731,138.733429   C375.080475,138.731567 370.436218,138.733063 365.000031,138.733063   C365.000031,141.078064 365.000031,143.005615 365.000031,144.933167   C365.000000,176.086624 365.003540,207.240097 364.997345,238.393555   C364.995911,245.630371 363.013489,248.886765 358.638580,248.923737   C354.295380,248.960449 352.102386,245.492371 352.101166,238.505722   C352.095215,204.353531 352.091125,170.201324 352.103577,136.049133   C352.106659,127.566414 353.802460,125.913033 362.374298,125.901619   C370.186707,125.891212 377.999115,125.899414 386.331085,125.899414   C386.482361,123.757164 386.709656,121.990273 386.715179,120.222687   C386.749176,109.394051 386.853851,98.563133 386.664642,87.737709   C386.602539,84.183823 387.873352,83.224442 391.287903,83.195053   C402.733215,83.096519 402.812836,82.975266 402.706055,71.691460   C402.624298,63.053940 402.305786,54.418659 401.967102,45.383179   C401.937317,43.825378 402.032990,42.666779 402.149719,41.253723   C420.226166,41.253723 438.302643,41.253723 456.816986,41.253723   C456.816986,54.943268 456.816986,68.672699 456.816986,82.841080   C462.302826,82.841080 467.377472,82.841080 473.019470,82.841080   C473.019470,94.869904 473.019470,106.463104 473.090515,118.521469  M447.189758,97.915680   C435.219238,97.985992 423.248688,98.056305 410.314575,98.004578   C406.549011,98.004578 402.783447,98.004578 398.783539,98.004578   C398.783539,111.962914 398.761383,125.420029 398.787109,138.877060   C398.953918,226.180908 399.111969,313.484802 399.404480,400.788269   C399.412659,403.232269 400.357117,406.056396 401.780792,408.048889   C409.815582,419.293762 418.124908,430.342651 426.359589,441.444305   C427.113831,442.461212 428.001190,443.379395 429.179443,444.755249   C438.269043,432.473541 447.184753,420.683350 455.745087,408.640564   C457.426636,406.274994 458.553955,402.934540 458.558136,400.041687   C458.700653,301.241699 458.676666,202.441498 458.676697,103.641312   C458.676697,101.856667 458.676697,100.072029 458.676697,98.118286   C454.744507,98.118286 451.434082,98.118286 447.189758,97.915680  M419.657440,54.665516   C418.481628,55.409523 416.303955,56.126606 416.283112,56.901649   C416.043091,65.833801 416.129974,74.774742 416.129974,83.833969   C425.436615,83.833969 434.175781,83.833969 442.945740,83.833969   C442.945740,74.015228 442.945740,64.479698 442.945740,54.663914   C435.247559,54.663914 427.937134,54.663914 419.657440,54.665516  z"/>
<path fill="#DFE4E8" opacity="1.000000" stroke="none" d=" M326.653809,404.000183   C326.653809,420.466553 326.653809,436.432922 326.653809,452.697021   C247.022354,452.697021 167.813187,452.697021 88.361282,452.697021   C88.361282,331.270264 88.361282,210.028488 88.361282,88.452698   C167.580231,88.452698 246.661087,88.452698 326.653839,88.452698   C326.653839,193.396408 326.653839,298.448303 326.653809,404.000183  M108.967896,384.500000   C108.967934,398.165680 108.962662,411.831390 108.970337,425.497070   C108.973999,432.017334 108.985138,432.029755 115.613968,432.030090   C176.776443,432.033386 237.938934,432.032959 299.101410,432.030762   C306.015839,432.030487 306.026459,432.022278 306.026611,425.279419   C306.028900,321.786499 306.028839,218.293579 306.026672,114.800667   C306.026520,108.027641 306.016479,108.019341 299.133820,108.019089   C238.138000,108.016838 177.142166,108.017105 116.146339,108.018654   C108.976921,108.018837 108.969292,108.024483 108.969154,115.018372   C108.967323,204.512253 108.967842,294.006134 108.967896,384.500000  z"/>
<path fill="#FBFBFC" opacity="1.000000" stroke="none" d=" M103.999832,74.662308   C96.501152,74.663857 89.501068,74.579720 82.504219,74.693695   C76.746109,74.787483 74.874695,76.777939 74.673790,82.608223   C74.622169,84.106209 74.662491,85.607391 74.662483,87.107109   C74.662308,195.586761 74.662323,304.066437 74.662323,412.546082   C74.662323,414.671478 74.662323,416.796875 74.662323,419.124786   C67.811775,419.124786 61.541008,419.124786 54.962746,419.124786   C54.962746,297.739838 54.962746,176.525162 54.962746,54.983067   C134.080978,54.983067 213.157806,54.983067 292.619446,54.983067   C292.619446,61.191959 292.619446,67.587715 292.619446,74.662315   C230.012848,74.662315 167.256348,74.662315 103.999832,74.662308  z"/>
<path fill="#FEFEFD" opacity="1.000000" stroke="none" d=" M411.278168,98.126617   C423.248688,98.056305 435.219238,97.985992 447.651001,98.477158   C448.110931,197.858749 448.116486,296.678864 448.064331,395.498932   C448.063141,397.742218 448.172363,400.623383 446.925018,402.117371   C441.619354,408.471985 435.821472,414.415649 429.801086,420.945648   C424.243195,414.904968 418.919403,409.446838 414.036682,403.619110   C412.499725,401.784668 411.366150,398.959717 411.363220,396.586487   C411.241425,297.100006 411.269104,197.613297 411.278168,98.126617  M422.634674,215.482971   C422.634674,217.756851 422.634674,220.030731 422.634674,222.314026   C427.458801,222.314026 431.662079,222.314026 435.821991,222.314026   C435.821991,217.713104 435.821991,213.483047 435.821991,209.320450   C431.306854,209.320450 427.106110,209.320450 422.634705,209.320450   C422.634705,211.293167 422.634705,212.936615 422.634674,215.482971  M431.391907,258.680908   C432.841522,258.602844 434.291138,258.524811 435.909912,258.437683   C435.909912,253.884567 435.909912,249.652481 435.909912,245.213043   C431.468628,245.213043 427.247467,245.213043 422.895447,245.213043   C422.895447,249.685074 422.895447,253.931107 422.895447,258.680939   C425.589478,258.680939 428.030090,258.680939 431.391907,258.680908  M429.475372,281.888245   C427.250000,281.888245 425.024597,281.888245 422.954346,281.888245   C422.954346,286.777222 422.954346,290.860504 422.954346,295.003510   C427.442352,295.003510 431.630798,295.003510 435.752594,295.003510   C435.752594,290.459686 435.752594,286.259216 435.752594,281.888245   C433.747284,281.888245 432.100494,281.888245 429.475372,281.888245  z"/>
<path fill="#F8BD5F" opacity="1.000000" stroke="none" d=" M410.796387,98.065598   C411.269104,197.613297 411.241425,297.100006 411.363220,396.586487   C411.366150,398.959717 412.499725,401.784668 414.036682,403.619110   C418.919403,409.446838 424.243195,414.904968 429.801086,420.945648   C435.821472,414.415649 441.619354,408.471985 446.925018,402.117371   C448.172363,400.623383 448.063141,397.742218 448.064331,395.498932   C448.116486,296.678864 448.110931,197.858749 448.117920,98.578461   C451.434082,98.118286 454.744507,98.118286 458.676697,98.118286   C458.676697,100.072029 458.676697,101.856667 458.676697,103.641312   C458.676666,202.441498 458.700653,301.241699 458.558136,400.041687   C458.553955,402.934540 457.426636,406.274994 455.745087,408.640564   C447.184753,420.683350 438.269043,432.473541 429.179443,444.755249   C428.001190,443.379395 427.113831,442.461212 426.359589,441.444305   C418.124908,430.342651 409.815582,419.293762 401.780792,408.048889   C400.357117,406.056396 399.412659,403.232269 399.404480,400.788269   C399.111969,313.484802 398.953918,226.180908 398.787109,138.877060   C398.761383,125.420029 398.783539,111.962914 398.783539,98.004578   C402.783447,98.004578 406.549011,98.004578 410.796387,98.065598  z"/>
<path fill="#E0E5E8" opacity="1.000000" stroke="none" d=" M420.142090,54.664715   C427.937134,54.663914 435.247559,54.663914 442.945740,54.663914   C442.945740,64.479698 442.945740,74.015228 442.945740,83.833969   C434.175781,83.833969 425.436615,83.833969 416.129974,83.833969   C416.129974,74.774742 416.043091,65.833801 416.283112,56.901649   C416.303955,56.126606 418.481628,55.409523 420.142090,54.664715  z"/>
<path fill="#FEFEFF" opacity="1.000000" stroke="none" d=" M108.967834,384.000000   C108.967842,294.006134 108.967323,204.512253 108.969154,115.018372   C108.969292,108.024483 108.976921,108.018837 116.146339,108.018654   C177.142166,108.017105 238.138000,108.016838 299.133820,108.019089   C306.016479,108.019341 306.026520,108.027641 306.026672,114.800667   C306.028839,218.293579 306.028900,321.786499 306.026611,425.279419   C306.026459,432.022278 306.015839,432.030487 299.101410,432.030762   C237.938934,432.032959 176.776443,432.033386 115.613968,432.030090   C108.985138,432.029755 108.973999,432.017334 108.970337,425.497070   C108.962662,411.831390 108.967934,398.165680 108.967834,384.000000  M286.168976,158.076004   C289.399414,156.540573 291.120453,154.129974 290.167114,150.477753   C289.117981,146.458725 285.960205,145.842941 282.370209,145.849350   C261.714844,145.886261 241.059372,145.866135 220.403931,145.866989   C216.239563,145.867157 212.074554,145.830658 207.910995,145.890762   C203.766434,145.950607 201.176453,148.057297 201.118240,152.237656   C201.062576,156.234070 203.725571,158.143082 207.476273,158.578186   C208.957748,158.750061 210.469818,158.682190 211.967957,158.682663   C230.124756,158.688354 248.281662,158.721527 266.438293,158.667313   C272.753601,158.648468 279.068207,158.408539 286.168976,158.076004  M247.499954,396.134033   C258.982635,396.133911 270.465363,396.157715 281.947968,396.122986   C287.203156,396.107117 290.366089,393.721649 290.483215,389.837799   C290.605255,385.790192 287.723511,383.357697 282.201538,383.343109   C257.904968,383.278961 233.608063,383.281219 209.311508,383.344971   C203.913193,383.359131 200.979187,385.869141 201.050766,389.933807   C201.122086,393.982208 203.963974,396.105774 209.555634,396.121643   C221.870316,396.156586 234.185165,396.133453 247.499954,396.134033  M281.155029,217.897232   C282.635406,217.752594 284.654968,218.162186 285.487854,217.351959   C287.431976,215.460724 289.813599,213.129593 290.165161,210.707657   C290.644470,207.405914 287.841797,205.463425 284.454773,205.067184   C283.467712,204.951721 282.460052,204.994980 281.461853,204.994843   C257.657867,204.991592 233.853897,204.990768 210.049911,204.997223   C208.886398,204.997543 207.306427,204.599274 206.637115,205.193695   C204.587250,207.014175 201.692871,209.085342 201.423462,211.334137   C201.202271,213.180298 203.967300,215.808105 205.979416,217.339645   C207.195206,218.265091 209.499969,217.877090 211.315674,217.879227   C234.287323,217.906403 257.259003,217.897202 281.155029,217.897232  M281.162750,264.103119   C257.169800,264.103943 233.176804,264.078796 209.183945,264.126801   C204.185822,264.136780 201.214172,266.551971 201.053940,270.371552   C200.896393,274.127289 203.710739,276.953217 208.226257,276.966431   C233.385269,277.039978 258.544647,277.016205 283.703827,276.972198   C287.569733,276.965454 290.114685,274.988434 290.392822,271.029327   C290.672455,267.049042 288.342377,264.903748 284.564331,264.227600   C283.752380,264.082245 282.904114,264.139557 281.162750,264.103119  M221.503693,337.007477   C241.302017,337.007477 261.100342,337.013245 280.898651,337.004028   C287.058868,337.001160 290.330963,334.818848 290.475952,330.674469   C290.629242,326.292664 287.422455,324.117920 280.722321,324.106628   C272.070984,324.092041 263.419586,324.102905 254.768219,324.103058   C239.794693,324.103363 224.821136,324.081177 209.847687,324.115784   C204.182831,324.128906 201.002228,326.568756 201.048904,330.687927   C201.095581,334.806641 204.152725,336.968994 210.024704,337.003540   C213.518417,337.024109 217.012329,337.007446 221.503693,337.007477  M176.270432,325.763947   C178.220108,323.719940 180.393890,321.842285 182.064484,319.591187   C184.310638,316.564453 184.460709,312.675873 181.384674,310.723969   C179.255768,309.373016 175.631042,310.017334 172.752304,310.382263   C171.546295,310.535156 170.507797,312.238556 169.449844,313.293884   C162.160049,320.565796 154.885239,327.852783 146.790421,335.950409   C145.408630,334.134735 144.276978,332.473816 142.963898,330.971436   C141.652359,329.470825 140.209473,328.073944 138.735687,326.728485   C135.218338,323.517365 131.214630,323.155090 128.466400,325.722870   C125.611450,328.390350 125.813866,332.872559 129.163727,336.386475   C132.838165,340.240936 136.650497,343.965302 140.444321,347.704163   C145.286362,352.476044 149.436600,352.527283 154.217789,347.795349   C161.434921,340.652557 168.588333,333.445343 176.270432,325.763947  M152.777176,408.488586   C156.105011,405.236481 159.428802,401.980225 162.761566,398.733124   C168.832275,392.818573 174.977615,386.978394 180.954239,380.970306   C184.160049,377.747650 184.347214,373.342621 181.744522,370.689392   C179.206177,368.101715 174.803497,368.346252 171.443283,371.329102   C170.202850,372.430206 169.077438,373.661285 167.904831,374.838348   C161.137787,381.630981 154.372345,388.425201 147.071487,395.755981   C144.060654,392.494141 141.487915,389.439423 138.630005,386.680023   C135.240845,383.407593 131.103149,383.183380 128.397430,385.794586   C125.581841,388.511719 125.836189,392.902039 129.229370,396.446045   C133.136002,400.526337 137.132172,404.525726 141.200714,408.444733   C144.644638,411.762177 148.360153,412.453522 152.777176,408.488586  M143.361649,272.106964   C141.709641,270.465454 140.118744,268.756317 138.392227,267.197327   C135.291916,264.397766 131.838654,263.866638 128.485397,266.552643   C125.612114,268.854248 125.783386,273.549500 128.860046,276.806091   C132.972015,281.158600 137.212723,285.399384 141.563370,289.513397   C145.105881,292.863251 149.410294,293.149414 152.748352,289.907166   C162.414948,280.518005 171.927475,270.967072 181.359085,261.341064   C184.244049,258.396637 184.314056,253.611755 181.643066,251.458176   C178.346466,248.800232 174.779083,249.051422 171.725601,251.943268   C167.257751,256.174622 162.955566,260.582336 158.624161,264.955872   C154.941849,268.673981 151.318085,272.450104 147.200470,276.681458   C145.760223,274.921265 144.810776,273.760895 143.361649,272.106964  M179.799606,190.186584   C176.024200,189.078705 173.098785,190.326630 170.414230,193.100052   C162.919006,200.843338 155.281540,208.448944 147.125046,216.690063   C143.988571,213.272781 141.310043,210.078079 138.334229,207.189636   C135.337753,204.281128 131.784241,203.875824 128.450394,206.581940   C125.600861,208.894913 125.808983,213.585037 128.890778,216.839813   C133.007645,221.187744 137.240265,225.436615 141.597168,229.543411   C145.188522,232.928589 149.470261,233.143707 152.730743,229.952133   C162.360977,220.525314 171.916168,211.017929 181.322601,201.368469   C184.729660,197.873398 184.221878,194.317078 179.799606,190.186584  M161.448303,142.948288   C156.865051,147.633484 152.281799,152.318680 147.135620,157.579330   C145.357925,155.444992 144.133163,153.862701 142.787750,152.390686   C141.442459,150.918793 140.035110,149.491882 138.551437,148.160629   C135.275528,145.221191 130.687820,144.969086 128.201813,147.507309   C125.666656,150.095718 125.940590,154.552994 129.083176,157.832916   C133.111649,162.037415 137.222610,166.170364 141.444580,170.179810   C145.378220,173.915421 149.476227,173.968597 153.336349,170.183380   C162.603653,161.095886 171.772537,151.906601 180.888901,142.667404   C184.088776,139.424423 184.339874,135.006592 181.811615,132.358734   C179.162323,129.584122 174.658569,129.911896 171.136185,133.280197   C168.009933,136.269699 165.005966,139.387054 161.448303,142.948288  z"/>
<path fill="#203C56" opacity="1.000000" stroke="none" d=" M422.634705,215.031525   C422.634705,212.936615 422.634705,211.293167 422.634705,209.320450   C427.106110,209.320450 431.306854,209.320450 435.821991,209.320450   C435.821991,213.483047 435.821991,217.713104 435.821991,222.314026   C431.662079,222.314026 427.458801,222.314026 422.634674,222.314026   C422.634674,220.030731 422.634674,217.756851 422.634705,215.031525  z"/>
<path fill="#203C56" opacity="1.000000" stroke="none" d=" M430.931305,258.680908   C428.030090,258.680939 425.589478,258.680939 422.895447,258.680939   C422.895447,253.931107 422.895447,249.685074 422.895447,245.213043   C427.247467,245.213043 431.468628,245.213043 435.909912,245.213043   C435.909912,249.652481 435.909912,253.884567 435.909912,258.437683   C434.291138,258.524811 432.841522,258.602844 430.931305,258.680908  z"/>
<path fill="#193651" opacity="1.000000" stroke="none" d=" M429.964539,281.888245   C432.100494,281.888245 433.747284,281.888245 435.752594,281.888245   C435.752594,286.259216 435.752594,290.459686 435.752594,295.003510   C431.630798,295.003510 427.442352,295.003510 422.954346,295.003510   C422.954346,290.860504 422.954346,286.777222 422.954346,281.888245   C425.024597,281.888245 427.250000,281.888245 429.964539,281.888245  z"/>
<path fill="#203C56" opacity="1.000000" stroke="none" d=" M285.776062,158.172791   C279.068207,158.408539 272.753601,158.648468 266.438293,158.667313   C248.281662,158.721527 230.124756,158.688354 211.967957,158.682663   C210.469818,158.682190 208.957748,158.750061 207.476273,158.578186   C203.725571,158.143082 201.062576,156.234070 201.118240,152.237656   C201.176453,148.057297 203.766434,145.950607 207.910995,145.890762   C212.074554,145.830658 216.239563,145.867157 220.403931,145.866989   C241.059372,145.866135 261.714844,145.886261 282.370209,145.849350   C285.960205,145.842941 289.117981,146.458725 290.167114,150.477753   C291.120453,154.129974 289.399414,156.540573 285.776062,158.172791  z"/>
<path fill="#203C57" opacity="1.000000" stroke="none" d=" M246.999939,396.134033   C234.185165,396.133453 221.870316,396.156586 209.555634,396.121643   C203.963974,396.105774 201.122086,393.982208 201.050766,389.933807   C200.979187,385.869141 203.913193,383.359131 209.311508,383.344971   C233.608063,383.281219 257.904968,383.278961 282.201538,383.343109   C287.723511,383.357697 290.605255,385.790192 290.483215,389.837799   C290.366089,393.721649 287.203156,396.107117 281.947968,396.122986   C270.465363,396.157715 258.982635,396.133911 246.999939,396.134033  z"/>
<path fill="#1D3A54" opacity="1.000000" stroke="none" d=" M280.692871,217.897247   C257.259003,217.897202 234.287323,217.906403 211.315674,217.879227   C209.499969,217.877090 207.195206,218.265091 205.979416,217.339645   C203.967300,215.808105 201.202271,213.180298 201.423462,211.334137   C201.692871,209.085342 204.587250,207.014175 206.637115,205.193695   C207.306427,204.599274 208.886398,204.997543 210.049911,204.997223   C233.853897,204.990768 257.657867,204.991592 281.461853,204.994843   C282.460052,204.994980 283.467712,204.951721 284.454773,205.067184   C287.841797,205.463425 290.644470,207.405914 290.165161,210.707657   C289.813599,213.129593 287.431976,215.460724 285.487854,217.351959   C284.654968,218.162186 282.635406,217.752594 280.692871,217.897247  z"/>
<path fill="#1D3A54" opacity="1.000000" stroke="none" d=" M281.617676,264.103333   C282.904114,264.139557 283.752380,264.082245 284.564331,264.227600   C288.342377,264.903748 290.672455,267.049042 290.392822,271.029327   C290.114685,274.988434 287.569733,276.965454 283.703827,276.972198   C258.544647,277.016205 233.385269,277.039978 208.226257,276.966431   C203.710739,276.953217 200.896393,274.127289 201.053940,270.371552   C201.214172,266.551971 204.185822,264.136780 209.183945,264.126801   C233.176804,264.078796 257.169800,264.103943 281.617676,264.103333  z"/>
<path fill="#1D3A54" opacity="1.000000" stroke="none" d=" M221.004913,337.007477   C217.012329,337.007446 213.518417,337.024109 210.024704,337.003540   C204.152725,336.968994 201.095581,334.806641 201.048904,330.687927   C201.002228,326.568756 204.182831,324.128906 209.847687,324.115784   C224.821136,324.081177 239.794693,324.103363 254.768219,324.103058   C263.419586,324.102905 272.070984,324.092041 280.722321,324.106628   C287.422455,324.117920 290.629242,326.292664 290.475952,330.674469   C290.330963,334.818848 287.058868,337.001160 280.898651,337.004028   C261.100342,337.013245 241.302017,337.007477 221.004913,337.007477  z"/>
<path fill="#213D57" opacity="1.000000" stroke="none" d=" M176.019623,326.014740   C168.588333,333.445343 161.434921,340.652557 154.217789,347.795349   C149.436600,352.527283 145.286362,352.476044 140.444321,347.704163   C136.650497,343.965302 132.838165,340.240936 129.163727,336.386475   C125.813866,332.872559 125.611450,328.390350 128.466400,325.722870   C131.214630,323.155090 135.218338,323.517365 138.735687,326.728485   C140.209473,328.073944 141.652359,329.470825 142.963898,330.971436   C144.276978,332.473816 145.408630,334.134735 146.790421,335.950409   C154.885239,327.852783 162.160049,320.565796 169.449844,313.293884   C170.507797,312.238556 171.546295,310.535156 172.752304,310.382263   C175.631042,310.017334 179.255768,309.373016 181.384674,310.723969   C184.460709,312.675873 184.310638,316.564453 182.064484,319.591187   C180.393890,321.842285 178.220108,323.719940 176.019623,326.014740  z"/>
<path fill="#1F3B56" opacity="1.000000" stroke="none" d=" M152.488815,408.728943   C148.360153,412.453522 144.644638,411.762177 141.200714,408.444733   C137.132172,404.525726 133.136002,400.526337 129.229370,396.446045   C125.836189,392.902039 125.581841,388.511719 128.397430,385.794586   C131.103149,383.183380 135.240845,383.407593 138.630005,386.680023   C141.487915,389.439423 144.060654,392.494141 147.071487,395.755981   C154.372345,388.425201 161.137787,381.630981 167.904831,374.838348   C169.077438,373.661285 170.202850,372.430206 171.443283,371.329102   C174.803497,368.346252 179.206177,368.101715 181.744522,370.689392   C184.347214,373.342621 184.160049,377.747650 180.954239,380.970306   C174.977615,386.978394 168.832275,392.818573 162.761566,398.733124   C159.428802,401.980225 156.105011,405.236481 152.488815,408.728943  z"/>
<path fill="#1D3A54" opacity="1.000000" stroke="none" d=" M143.611481,272.353760   C144.810776,273.760895 145.760223,274.921265 147.200470,276.681458   C151.318085,272.450104 154.941849,268.673981 158.624161,264.955872   C162.955566,260.582336 167.257751,256.174622 171.725601,251.943268   C174.779083,249.051422 178.346466,248.800232 181.643066,251.458176   C184.314056,253.611755 184.244049,258.396637 181.359085,261.341064   C171.927475,270.967072 162.414948,280.518005 152.748352,289.907166   C149.410294,293.149414 145.105881,292.863251 141.563370,289.513397   C137.212723,285.399384 132.972015,281.158600 128.860046,276.806091   C125.783386,273.549500 125.612114,268.854248 128.485397,266.552643   C131.838654,263.866638 135.291916,264.397766 138.392227,267.197327   C140.118744,268.756317 141.709641,270.465454 143.611481,272.353760  z"/>
<path fill="#1D3A54" opacity="1.000000" stroke="none" d=" M180.133362,190.403564   C184.221878,194.317078 184.729660,197.873398 181.322601,201.368469   C171.916168,211.017929 162.360977,220.525314 152.730743,229.952133   C149.470261,233.143707 145.188522,232.928589 141.597168,229.543411   C137.240265,225.436615 133.007645,221.187744 128.890778,216.839813   C125.808983,213.585037 125.600861,208.894913 128.450394,206.581940   C131.784241,203.875824 135.337753,204.281128 138.334229,207.189636   C141.310043,210.078079 143.988571,213.272781 147.125046,216.690063   C155.281540,208.448944 162.919006,200.843338 170.414230,193.100052   C173.098785,190.326630 176.024200,189.078705 180.133362,190.403564  z"/>
<path fill="#1C3953" opacity="1.000000" stroke="none" d=" M161.698151,142.698120   C165.005966,139.387054 168.009933,136.269699 171.136185,133.280197   C174.658569,129.911896 179.162323,129.584122 181.811615,132.358734   C184.339874,135.006592 184.088776,139.424423 180.888901,142.667404   C171.772537,151.906601 162.603653,161.095886 153.336349,170.183380   C149.476227,173.968597 145.378220,173.915421 141.444580,170.179810   C137.222610,166.170364 133.111649,162.037415 129.083176,157.832916   C125.940590,154.552994 125.666656,150.095718 128.201813,147.507309   C130.687820,144.969086 135.275528,145.221191 138.551437,148.160629   C140.035110,149.491882 141.442459,150.918793 142.787750,152.390686   C144.133163,153.862701 145.357925,155.444992 147.135620,157.579330   C152.281799,152.318680 156.865051,147.633484 161.698151,142.698120  z"/>
</svg>